<svg height="512" viewBox="0 0 51 60" width="512" xmlns="http://www.w3.org/2000/svg"><g id="Page-1" fill="none" fill-rule="evenodd"><g id="044---Ninja-Costume" fill-rule="nonzero" transform="translate(-1)"><path id="Shape" d="m47 19c.0422834 2.0284799-.2240938 4.0515984-.79 6-2.08 6.79-8.1 8-15.21 8s-13.13-1.21-15.21-8c-.5659062-1.9484016-.8322834-3.9715201-.79-6 0 0 5-4 16-4s16 4 16 4z" fill="#a4c2f7"/><path id="Shape" d="m31 15c-.518 0-1.009.017-1.5.034 9.946.342 14.5 3.966 14.5 3.966.0422834 2.0284799-.2240938 4.0515984-.79 6-1.932 6.306-7.264 7.8-13.71 7.978.494.014.993.022 1.5.022 7.11 0 13.13-1.21 15.21-8 .5659062-1.9484016.8322834-3.9715201.79-6 0 0-5-4-16-4z" fill="#7facfa"/><path id="Shape" d="m23 45v-5l-2.82 4.53-5.29-3.02 1.77-3.54c1.523813-3.0491065 4.6413284-4.9738334 8.05-4.97h3.29s1 3 3 4c2.4373912 1.9547659 3.898622 4.8772275 4 8z" fill="#e8edfc"/><path id="Shape" d="m31 37c-2-1-3-4-3-4h-3s1 3 3 4c2.4373912 1.9547659 3.898622 4.8772275 4 8h3c-.101378-3.1227725-1.5626088-6.0452341-4-8z" fill="#cad9fc"/><path id="Shape" d="m20.18 44.53-.5.81c-.401036.806067-1.1428849 1.3894085-2.0207963 1.5890219s-1.7990583-.0056076-2.5092037-.5590219c-1.1302982-.9245241-1.4560452-2.5156733-.78-3.81l.52-1.05z" fill="#e8edfc"/><path id="Shape" d="m47.11 41.51-5.29 3.02-2.82-4.53v5h-4c-.101378-3.1227725-1.5626088-6.0452341-4-8 2-1 3-4 3-4h3.29c3.4086716-.0038334 6.526187 1.9208935 8.05 4.97z" fill="#e8edfc"/><path id="Shape" d="m45.34 37.97c-1.523813-3.0491065-4.6413284-4.9738334-8.05-4.97l-3-.0000057c3.4086716-.0038277 6.526187 1.9208992 8.05 4.9700057l1.77 3.54-3.077 1.756.787 1.264 5.29-3.02z" fill="#cad9fc"/><path id="Shape" d="m41 55h-7.99c-.0082685-.0326539-.0116387-.0663553-.01-.1.083497-1.9004907-.389136-3.7840722-1.36-5.42-.43-.64-.87-.64-1.28 0-.9809072 1.6684227-1.4535638 3.5868526-1.36 5.52h-8c-.0218349-2.9185101.5745798-5.808565 1.75-8.48.201168-.4801116.2867992-1.0007491.25-1.52h16v.31c-.004118.4133422.0811629.8226901.25 1.2 1.1756741 2.6748752 1.7720685 5.5682403 1.75 8.49z" fill="#a4c2f7"/><path id="Shape" d="m39.25 46.51c-.1688371-.3773099-.254118-.7866578-.25-1.2v-.31h-3v.31c-.004118.4133422.0811629.8226901.25 1.2 1.1756741 2.6748752 1.7720685 5.5682403 1.75 8.49h3c.0220685-2.9217597-.5743259-5.8151248-1.75-8.49z" fill="#7facfa"/><path id="Shape" d="m29 55c-.0013242 1.2084751-.5474417 2.3519401-1.4865425 3.1125342-.9391009.7605941-2.171075 1.0572363-3.3534575.8074658-1.8305503-.4227613-3.1353931-2.0414272-3.16-3.92z" fill="#cad9fc"/><path id="Shape" d="m41 55c-.0006544 1.1423333-.4896832 2.2298838-1.3437901 2.988453s-1.9917895 1.1157714-3.1262099.981547c-1.9923475-.2731974-3.4873076-1.9592746-3.52-3.97z" fill="#cad9fc"/><path id="Shape" d="m46.85 46.36c-.7088231.5541165-1.6289182.7608514-2.5066513.5632161-.8777332-.1976353-1.6204265-.7787729-2.0233487-1.5832161l-.5-.81 5.29-3.02.52 1.05c.6770318 1.2909426.3508273 2.8801443-.78 3.8z" fill="#e8edfc"/><path id="Shape" d="m51 22c0 1.6568542-1.3431458 3-3 3h-1.79c.5659062-1.9484016.8322834-3.9715201.79-6h1c1.6568542 0 3 1.3431458 3 3z" fill="#a4c2f7"/><path id="Shape" d="m15.79 25h-1.79c-1.6568542 0-2.9999999-1.3431458-2.9999999-3s1.3431457-3 2.9999999-3h1c-.0422834 2.0284799.2240938 4.0515984.79 6z" fill="#a4c2f7"/><path id="Shape" d="m47 13v6c-1.3998025-.9845695-2.9452038-1.7437732-4.58-2.25-3.6818536-1.2185425-7.5422068-1.8101028-11.42-1.75-3.8777932-.0601028-7.7381464.5314575-11.42 1.75-1.6347962.5062268-3.1801975 1.2654305-4.58 2.25v-6s5-4 16-4 16 4 16 4z" fill="#e8edfc"/><path id="Shape" d="m31 9c-.518 0-1.009.017-1.5.034 9.946.342 14.5 3.966 14.5 3.966v4.362c1.0616016.4247107 2.0687233.9745991 3 1.638v-6s-5-4-16-4z" fill="#cad9fc"/><path id="Shape" d="m47 12v1s-5-4-16-4-16 4-16 4v-1c0-4 2-11 16-11s16 7 16 11z" fill="#a4c2f7"/><path id="Shape" d="m31 1c-.518 0-1.014.012-1.5.031 11.953.459 14.265 6.412 14.481 10.316 1.0695386.4267549 2.083293.9818182 3.019 1.653v-1c0-4-2-11-16-11z" fill="#7facfa"/><path id="Shape" d="m43 21c0 2.95-.79 7-5.15 7-4.89 0-3.91-2-6.85-2s-1.96 2-6.85 2c-4.36 0-5.15-4.05-5.15-7-.0217964-1.4377913.1737433-2.8706253.58-4.25 3.6818536-1.2185425 7.5422068-1.8101028 11.42-1.75 3.8777932-.0601028 7.7381464.5314575 11.42 1.75.4062567 1.3793747.6017964 2.8122087.58 4.25z" fill="#e8edfc"/><path id="Shape" d="m42.42 16.75c-3.6818536-1.2185425-7.5422068-1.8101028-11.42-1.75-.516 0-1.01.014-1.5.031 3.3741707.0721874 6.7182731.6516745 9.92 1.719.4062567 1.3793747.6017964 2.8122087.58 4.25 0 2.658-.651 6.2-3.967 6.876.6016552.0872623 1.2090679.1287148 1.817.124 4.36 0 5.15-4.05 5.15-7 .0217964-1.4377913-.1737433-2.8706253-.58-4.25z" fill="#cad9fc"/><circle id="Oval" cx="25" cy="22" fill="#e8edfc" r="2"/><circle id="Oval" cx="37" cy="22" fill="#e8edfc" r="2"/><path id="Shape" d="m15 13v6h-1c-.76184-.0024437-1.4955864.2874756-2.05.81-2.12.09-3.95-.19-3.95 3.19v4l-3-2-3 2v-5c0-6 5-8 8-8 1.7186853.0246005 3.422983-.3162591 5-1z" fill="#cad9fc"/><path id="Shape" d="m34 33s-1 3-3 4c-2-1-3-4-3-4z" fill="#a4c2f7"/><g fill="#fff"><path id="Shape" d="m24 55c-.0218349-2.9185101.5745798-5.808565 1.75-8.48.325-.725.25-.744.25-6.52-2.516 4.041-2.7 4.331-3 4.816.0623788.5789771-.0247278 1.1642786-.253 1.7-1.174943 2.6728921-1.7703454 5.5643599-1.747 8.484-.0068195 1.3301998.6503722 2.5761364 1.7520568 3.3216357 1.1016845.7454993 2.5026517.892299 3.7349432.3913643-1.4830119-.6457303-2.4543047-2.0958349-2.487-3.713z"/><path id="Shape" d="m8 27v-2l-1.5 1z"/><path id="Shape" d="m5 22c0-6 5-8 8-8 1.7186853.0246005 3.422983-.3162591 5-1v-1c0-3.852 1.86-10.483 14.5-10.969-.486-.019-.982-.031-1.5-.031-14 0-16 7-16 11v1c-1.577017.6837409-3.2813147 1.0246005-5 1-3 0-8 2-8 8v5l3-2z"/><path id="Shape" d="m31 33c.507 0 1.006-.008 1.5-.022-6.446-.178-11.778-1.672-13.71-7.978h-1.79c-1.2313237-.0001401-2.3375305-.7526654-2.7898826-1.8978884-.452352-1.145223-.1589837-2.4505669.7398826-3.2921116-1.971.084-3.69-.148-3.921 2.536.1657324 1.514354 1.4476138 2.6594611 2.971 2.654h1.79c2.08 6.79 8.1 8 15.21 8z"/><path id="Shape" d="m18.15 46.37c-1.1302982-.9245241-1.4560452-2.5156733-.78-3.81.678-1.37.214-.439 2.29-4.59 1.5715031-3.1426227 4.8281842-5.0833548 8.34-4.97h-3c-3.5118158-.1133548-6.7684969 1.8273773-8.34 4.97-2.076 4.151-1.612 3.22-2.29 4.59-.6760452 1.2943267-.3502982 2.8854759.78 3.81.9693598.746597 2.2949919.8296964 3.35.21-.120963-.0625768-.2378614-.1327158-.35-.21z"/><path id="Shape" d="m4.04 18.117-1.685-1.077c.83282917-1.2713225 1.98676909-2.3000366 3.345-2.982 1.33582972-.6707385 2.80545245-1.032334 4.3-1.058v2c-2.37686658.0017884-4.60263187 1.1658338-5.96 3.117z"/></g><path id="Shape" d="m48 18v-6c0-3.608-1.657-12-17-12s-17 8.392-17 12v.326c-1.285161.4510527-2.6379933.6790049-4 .674-.55228475 0-1 .4477153-1 1s.44771525 1 1 1c1.3537909.0021048 2.7008701-.1901908 4-.571v3.571c-.8682255.0030526-1.7114236.2911453-2.4.82l-.236.008c-1.842.051-4.364.12-4.364 4.172v2.132l-1.445-.964c-.33603687-.2241995-.77396313-.2241995-1.11 0l-1.445.964v-3.132c-.02307746-1.3660971.33721732-2.7113131 1.04-3.883.25044187-.4483051.14673479-1.0113464-.247-1.341-.21744817-.1795383-.50312634-.2537979-.78047988-.2028791-.27735355.0509189-.5180249.2218101-.65752012.4668791-.90881826 1.4931403-1.37843537 3.2121815-1.355 4.96v5c-.00005521.3688869.20297845.707846.52823496.881874.32525651.1740279.71990638.1548582 1.02676504-.049874l2.445-1.632 2.445 1.63c.30656023.204534.70076998.2238804 1.02588438.0503466.3251144-.1735337.52843413-.5118186.52911562-.8803466v-4c0-1.538.28-1.957 1.171-2.093-.34929981 1.2037305-.1116143 2.5016657.6415815 3.5035008.7531958 1.001835 1.9340327 1.5906938 3.1874185 1.5894992h1.091c1.0329549 3.0202427 3.3520824 5.4269052 6.332 6.571-2.462947.8455467-4.4949774 2.6250996-5.658 4.955l-2.292 4.583c-.744246 1.3839448-.6092435 3.0754485.3450936 4.3238258.9543372 1.2483774 2.5512007 1.8223437 4.0819064 1.4671742 1.1348735-.2529545 2.0991874-.9960586 2.633-2.029l1.467-2.365v1.807c.0020234.2728416-.0545869.5429343-.166.792-1.2082369 2.7491188-1.8327406 5.7190866-1.834 8.722-.0585957 2.4209614 1.6024479 4.5456397 3.966 5.073 1.4760087.3097041 3.0129823-.0625356 4.1837283-1.0132574 1.170746-.9507219 1.8504792-2.378592 1.8502717-3.8867426-.0537325-1.6057267.2897624-3.1998866 1-4.641.6931836 1.4135301 1.0361653 2.9730677 1 4.547-.0174802 2.5616264 1.8793324 4.7335197 4.42 5.061.1892262.0216235.3795426.032308.57.032 1.327641.0026553 2.6018293-.5228191 3.5416463-1.4605726s1.4680908-2.2107838 1.4683537-3.5384274c.0233182-3.062926-.6020587-6.0960893-1.835-8.9-.1105177-.2475573-.1667775-.5158993-.165-.787v-1.813l1.422 2.286c.5356311 1.0722637 1.5238763 1.8478199 2.6927308 2.1132045 1.1688546.2653846 2.3951165-.007375 3.3412692-.7432045 1.5186844-1.2097611 1.9676297-3.3257981 1.071-5.048l-2.292-4.584c-1.1629615-2.3295691-3.1945376-4.1090387-5.657-4.955 2.9800482-1.1424864 5.2992152-3.5488373 6.331-6.569h1.091c2.209139 0 4-1.790861 4-4s-1.790861-4-4-4zm-6 3c0 3.981-1.4 6-4.15 6-2.435 0-3.15-.51-3.85-1-.846357-.6848064-1.9120306-1.0400309-3-1-1.0879694-.0400309-2.153643.3151936-3 1-.694.494-1.411 1-3.846 1-2.754 0-4.154-2.019-4.154-6-.0073722-1.1651919.1225227-2.3271969.387-3.462 3.4349453-1.0668348 7.0165164-1.585864 10.613-1.538 3.5964891-.0479473 7.1780732.4710837 10.613 1.538.2644773 1.1348031.3943722 2.2968081.387 3.462zm-11-7c-7.8 0-12.672 1.951-15 3.2v-3.675c1.307-.846 6.146-3.525 15-3.525s13.7 2.682 15 3.525v3.675c-2.328-1.249-7.2-3.2-15-3.2zm0-12c12.14 0 14.672 5.42 14.967 9.183-2.342-1.251-7.212-3.183-14.967-3.183s-12.625 1.932-14.967 3.183c.295-3.763 2.827-9.183 14.967-9.183zm-18.413 21.413c-.5709737-.5719529-.7416116-1.4313318-.4324705-2.1780398s1.0372997-1.2339804 1.8454705-1.2349602h.029c.0308321 1.3447459.185824 2.6837684.463 4.0000054l-.492-.0000054c-.5305618.0012405-1.0394935-.2101841-1.413-.587zm18.413 10.587h1.454c-.3589213.697826-.8531975 1.317201-1.454 1.822-.5987315-.506049-1.0918027-1.1251914-1.451-1.822zm-13.55 11.948c-.5910347.1380733-1.2127769-.0007051-1.689-.377-.7489428-.6319972-.95699-1.7001114-.5-2.567l.051-.1 3.479 1.987v.006c-.2669538.5335573-.7591086.9192804-1.341 1.051zm2.4-2.759-3.638-2.078 1.345-2.69c1.3466451-2.7157735 4.1196976-4.4301722 7.151-4.421h2.613c.612081 1.5586916 1.6905425 2.8903541 3.088 3.813 1.8943352 1.5599617 3.1489383 3.7620126 3.525 6.187h-9.934v-4c.0000971-.4468521-.2962789-.8395346-.7260342-.9619568s-.8885718.0551325-1.1239658.4349568zm4.516 14.746c-1.0108504-.2215529-1.8323309-.955424-2.166-1.935h5.61c-.4876011 1.4295077-1.9727059 2.2631827-3.447 1.935zm6.634-9.935h-.009c-.6353348.0356902-1.203693.406723-1.492.974-.8934054 1.5294219-1.394944 3.2559513-1.46 5.026h-6.007c.0947464-2.4383049.6462944-4.8371657 1.626-7.072.128688-.2968186.2197286-.6085738.271-.928h14.142c.0503009.3188824.1410317.6300552.27.926.9805069 2.2354118 1.5330586 4.6348906 1.629 7.074h-6.013c-.0592133-1.7907545-.5700285-3.5375017-1.485-5.078-.2945822-.5446243-.8534157-.8946545-1.472-.922zm5.649 9.98c-1.1193224-.1534787-2.060473-.9165737-2.442-1.98h5.6c-.4521009 1.3274059-1.7746152 2.1544996-3.166 1.98zm9.591-12.41c-.4755332.3777375-1.0978191.5170058-1.689.378-.5798285-.1418349-1.0688605-.5297004-1.339-1.062l3.475-1.986.051.1c.4598866.8670554.2524658 1.9374798-.498 2.57zm-1.794-7.149 1.346 2.69-3.636 2.076-2.306-3.714c-.235394-.3798243-.6942105-.557379-1.1239658-.4349568s-.7261313.5151047-.7260342.9619568v4h-2.05c-.2858718-2.6240595-1.4813459-5.0652466-3.379-6.9.9024266-.8823663 1.6191641-1.936392 2.108-3.1h2.613c3.0325167-.0107926 5.8072423 1.7039211 7.154 4.421zm-13.362-6.421h-.168c-7.17-.01-12.323-1.263-14.172-7.3-.4855725-1.6851202-.7309907-3.4303162-.729-5.184.696151-.4362774 1.4249893-.8180817 2.18-1.142-.1251727.8698226-.1903267 1.7472294-.195 2.626 0 5.084 2.242 8 6.15 8 3.074 0 4.144-.762 5.005-1.374.509601-.4416884 1.171835-.6663814 1.845-.626.673165-.0403814 1.335399.1843116 1.845.626.861.612 1.931 1.374 5.005 1.374 3.908 0 6.15-2.916 6.15-8-.0062835-.8792195-.0731082-1.7569627-.2-2.627.75483.324298 1.4836397.7060873 2.18 1.142.0018264 1.7564398-.2442675 3.5043462-.731 5.192-1.842 6.029-6.995 7.282-14.165 7.293zm18.329-8.586c-.3736719.3764489-.882583.5875048-1.413.586l-.493.000008c.2777888-1.3161631.4331185-2.6552117.464-4.000008h.029c.8081708.0009798 1.5363294.4882522 1.8454705 1.2349602s.1385032 1.6060869-.4324705 2.1780398z" fill="#428dff"/><path id="Shape" d="m25 19c-1.6568542 0-3 1.3431458-3 3s1.3431458 3 3 3 3-1.3431458 3-3-1.3431458-3-3-3zm0 4c-.5522847 0-1-.4477153-1-1s.4477153-1 1-1 1 .4477153 1 1-.4477153 1-1 1z" fill="#428dff"/><path id="Shape" d="m37 25c1.2133867 0 2.3072956-.7309265 2.7716386-1.8519497s.2076757-2.4113767-.6503183-3.2693706c-.8579939-.857994-2.1483474-1.1146613-3.2693706-.6503183s-1.8519497 1.5582519-1.8519497 2.7716386c0 1.6568542 1.3431458 3 3 3zm0-4c.5522847 0 1 .4477153 1 1s-.4477153 1-1 1-1-.4477153-1-1 .4477153-1 1-1z" fill="#428dff"/><path id="Shape" d="m6.149 15.943c-.55228474.0027614-1.00223854-.4427153-1.00499996-.995-.00276143-.5522847.44271522-1.0022386.99499996-1.005h.01c.55228475 0 1 .4477153 1 1s-.44771525 1-1 1z" fill="#428dff"/></g></g></svg>